<?xml version="1.0" encoding="UTF-8" standalone="no"?>
<svg
   id="svg8"
   version="1.1"
   viewBox="0 0 225.43761 225.43761"
   height="225.43761mm"
   width="225.43761mm"
   sodipodi:docname="ensciences.svg"
   inkscape:export-filename="/home/thibault/SynologyDrive/Dev/Node.js/electron_test/fourier1/assets/icon.png"
   inkscape:export-xdpi="14.421728"
   inkscape:export-ydpi="14.421728"
   inkscape:version="1.3-dev (7be8183, 2022-04-11)"
   xml:space="preserve"
   xmlns:inkscape="http://www.inkscape.org/namespaces/inkscape"
   xmlns:sodipodi="http://sodipodi.sourceforge.net/DTD/sodipodi-0.dtd"
   xmlns="http://www.w3.org/2000/svg"
   xmlns:svg="http://www.w3.org/2000/svg"
   xmlns:rdf="http://www.w3.org/1999/02/22-rdf-syntax-ns#"
   xmlns:cc="http://creativecommons.org/ns#"
   xmlns:dc="http://purl.org/dc/elements/1.1/"><sodipodi:namedview
     pagecolor="#ffffff"
     bordercolor="#666666"
     borderopacity="1"
     objecttolerance="10"
     gridtolerance="10"
     guidetolerance="10"
     inkscape:pageopacity="0"
     inkscape:pageshadow="2"
     inkscape:window-width="1920"
     inkscape:window-height="1022"
     id="namedview11"
     showgrid="false"
     inkscape:zoom="0.21729408"
     inkscape:cx="-506.2264"
     inkscape:cy="708.71696"
     inkscape:window-x="0"
     inkscape:window-y="32"
     inkscape:window-maximized="1"
     inkscape:current-layer="svg8"
     inkscape:pagecheckerboard="0"
     inkscape:deskcolor="#d1d1d1"
     inkscape:document-units="mm" /><defs
     id="defs2"><style
       id="style835">.fa-secondary{opacity:.4}</style><style
       id="style2">.fa-secondary{opacity:.4}</style></defs><metadata
     id="metadata5"><rdf:RDF><cc:Work
         rdf:about=""><dc:format>image/svg+xml</dc:format><dc:type
           rdf:resource="http://purl.org/dc/dcmitype/StillImage" /></cc:Work></rdf:RDF></metadata><g
     transform="translate(6.5818024,17.28936)"
     id="layer1"><circle
       r="112.7188"
       cy="95.429443"
       cx="106.137"
       id="path833"
       style="fill:#0082c3;fill-opacity:1;stroke:none;stroke-width:1.29771;stroke-linecap:round;stroke-linejoin:bevel" /><g
       transform="matrix(0.30601403,0,0,0.30601403,37.631642,17.089853)"
       id="g852"><path
         style="opacity:0.752255;fill:#ffffff;fill-opacity:1"
         d="M 371,139.78 A 383.51,383.51 0 0 0 351.14,78.15 c 38.56,-0.12 69.15,11.36 85.18,35.28 33,49.19 -6.09,135.37 -88.62,208.33 A 501.57,501.57 0 0 0 352,256 q 0,-12.88 -0.63,-25.46 c 29.83,-34.13 43.09,-64.7 31.85,-81.46 A 25.19,25.19 0 0 0 371,139.78 Z m 12.88,192.14 c 4.46,12.6 4.49,23.27 -0.69,31 -7.22,10.79 -23.59,14.35 -45.75,11.63 -2,7.73 -4.24,15.24 -6.64,22.48 v 0.07 q -2.38,7.22 -5,14.08 l -0.05,0.12 q -3.93,10.32 -8.38,19.78 c 54.26,8.29 98.5,-1.95 119,-32.51 19.19,-28.64 14,-69.81 -10,-113.62 a 428.39,428.39 0 0 1 -42.46,46.97 z M 287,289.47 q -13.14,10 -27.56,19.69 c -11.94,8 -23.86,15.37 -35.61,22 -11.75,-6.68 -23.68,-14 -35.63,-22 C 100.21,250.1 44.8,178.43 64.47,149.08 c 19.67,-29.35 107,-5.29 195,53.76 9.59,6.44 18.8,13 27.56,19.69 -0.12,-2 -0.24,-3.95 -0.38,-5.92 v -0.37 q -0.18,-2.61 -0.39,-5.19 c 0,-0.34 -0.05,-0.68 -0.08,-1 q -0.19,-2.43 -0.42,-4.83 l -0.06,-0.72 q -0.53,-5.62 -1.15,-11.1 c 0,-0.19 0,-0.38 -0.07,-0.58 -0.19,-1.62 -0.39,-3.23 -0.59,-4.83 0,-0.25 -0.06,-0.51 -0.1,-0.77 q -1,-8.1 -2.3,-15.85 c 0,-0.16 -0.06,-0.32 -0.08,-0.48 -0.27,-1.61 -0.54,-3.21 -0.82,-4.8 l -0.06,-0.32 q -1.38,-7.73 -3,-15 l -0.06,-0.26 a 332.53,332.53 0 0 0 -3.43,-14.19 C 162.91,69.32 48.35,58.25 11.35,113.46 -28,172.15 35.25,283.58 152.61,362.31 c 0.59,0.41 1.19,0.8 1.79,1.19 -44.09,15.5 -78.48,16.5 -89.93,-0.58 -5.18,-7.73 -5.14,-18.4 -0.68,-31 a 427.57,427.57 0 0 1 -42.42,-47 c -24,43.8 -29.21,85 -10,113.62 37,55.21 151.56,44.14 262.69,-22.86 6.51,-24.52 11.08,-53.98 12.94,-86.21 z"
         class="fa-secondary"
         id="path839" /><path
         style="fill:#ffffff;fill-opacity:1"
         d="m 256,256 a 32,32 0 1 0 -32,32 32,32 0 0 0 32,-32 z m -91.7,-69.28 c -8.46,-3.64 -16.7,-6.81 -24.6,-9.44 -13.62,-4.54 -26.07,-7.43 -36.09,-8.37 q -1.33,7.38 -2.45,15 a 190.32,190.32 0 0 0 18,24.11 368.85,368.85 0 0 0 41,40 541.33,541.33 0 0 1 4.14,-61.3 z M 224,0 C 195.14,0 168.51,19.11 147.09,51.35 A 382.81,382.81 0 0 1 209.21,69.16 25.41,25.41 0 0 1 224,64 c 35.35,0 64,86 64,192 0,106 -28.65,192 -64,192 a 25.41,25.41 0 0 1 -14.79,-5.16 382.81,382.81 0 0 1 -62.12,17.81 C 168.51,492.89 195.14,512 224,512 294.69,512 352,397.38 352,256 352,114.62 294.69,0 224,0 Z"
         class="fa-primary"
         id="path841" /></g></g></svg>
