<?xml version="1.0" encoding="UTF-8" standalone="no"?>
<!-- Created with Inkscape (http://www.inkscape.org/) -->

<svg
   version="1.1"
   id="svg2841"
   width="136.5612"
   height="136.56116"
   viewBox="0 0 136.5612 136.56116"
   sodipodi:docname="axis1.pdf"
   xmlns:inkscape="http://www.inkscape.org/namespaces/inkscape"
   xmlns:sodipodi="http://sodipodi.sourceforge.net/DTD/sodipodi-0.dtd"
   xmlns="http://www.w3.org/2000/svg"
   xmlns:svg="http://www.w3.org/2000/svg">
  <defs
     id="defs2845" />
  <sodipodi:namedview
     id="namedview2843"
     pagecolor="#ffffff"
     bordercolor="#000000"
     borderopacity="0.25"
     inkscape:pageshadow="2"
     inkscape:pageopacity="0.0"
     inkscape:pagecheckerboard="0"
     inkscape:deskcolor="#d1d1d1"
     showgrid="false" />
  <g
     id="g2849"
     inkscape:groupmode="layer"
     inkscape:label="Page 1"
     transform="matrix(1.3333333,0,0,1.3333333,0,-1.2526378e-6)">
    <g
       id="g2851">
      <g
         id="g2853">
        <path
           d="M 42.676,100.477 V 18.426"
           style="fill:none;stroke:#000000;stroke-width:3.89197;stroke-linecap:round;stroke-linejoin:miter;stroke-miterlimit:4;stroke-dasharray:none;stroke-opacity:1"
           id="path2855" />
      </g>
      <path
         d="m 31.492,19.004 8.75,-17.496 c 1.004,-2.012 3.867,-2.012 4.871,0 l 8.75,17.496 c 1.117,2.238 -0.508,4.871 -3.011,4.871 H 34.504 c -2.504,0 -4.133,-2.633 -3.012,-4.871 z"
         style="fill:#000000;fill-opacity:1;fill-rule:evenodd;stroke:none"
         id="path2857" />
      <g
         id="g2859">
        <path
           d="M 1.945,59.742 H 83.992"
           style="fill:none;stroke:#000000;stroke-width:3.89197;stroke-linecap:round;stroke-linejoin:miter;stroke-miterlimit:4;stroke-dasharray:none;stroke-opacity:1"
           id="path2861" />
      </g>
      <path
         d="m 83.418,48.559 17.496,8.75 c 2.008,1.003 2.008,3.867 0,4.871 L 83.418,70.93 C 81.18,72.047 78.543,70.422 78.543,67.918 V 51.57 c 0,-2.504 2.637,-4.132 4.875,-3.011 z"
         style="fill:#000000;fill-opacity:1;fill-rule:evenodd;stroke:none"
         id="path2863" />
    </g>
  </g>
</svg>
