<?xml version="1.0" encoding="UTF-8" standalone="no"?>
<!-- Created with Inkscape (http://www.inkscape.org/) -->

<svg
   width="88.501999mm"
   height="88.501999mm"
   viewBox="0 0 88.501999 88.501999"
   version="1.1"
   id="svg8"
   sodipodi:docname="icon.svg"
   inkscape:version="1.3-dev (7be8183, 2022-04-11)"
   xml:space="preserve"
   inkscape:export-filename="icon.png"
   inkscape:export-xdpi="96"
   inkscape:export-ydpi="96"
   xmlns:inkscape="http://www.inkscape.org/namespaces/inkscape"
   xmlns:sodipodi="http://sodipodi.sourceforge.net/DTD/sodipodi-0.dtd"
   xmlns="http://www.w3.org/2000/svg"
   xmlns:svg="http://www.w3.org/2000/svg"
   xmlns:rdf="http://www.w3.org/1999/02/22-rdf-syntax-ns#"
   xmlns:cc="http://creativecommons.org/ns#"
   xmlns:dc="http://purl.org/dc/elements/1.1/"><defs
     id="defs2"><style
       id="style2">.fa-secondary{opacity:.4}</style></defs><sodipodi:namedview
     id="base"
     pagecolor="#ffffff"
     bordercolor="#666666"
     borderopacity="1.0"
     inkscape:pageopacity="0.0"
     inkscape:pageshadow="2"
     inkscape:zoom="0.64606202"
     inkscape:cx="-349.81162"
     inkscape:cy="12.382712"
     inkscape:document-units="mm"
     inkscape:current-layer="layer1"
     showgrid="false"
     inkscape:window-width="1920"
     inkscape:window-height="1022"
     inkscape:window-x="0"
     inkscape:window-y="32"
     inkscape:window-maximized="1"
     inkscape:pagecheckerboard="0"
     inkscape:deskcolor="#d1d1d1" /><metadata
     id="metadata5"><rdf:RDF><cc:Work
         rdf:about=""><dc:format>image/svg+xml</dc:format><dc:type
           rdf:resource="http://purl.org/dc/dcmitype/StillImage" /></cc:Work></rdf:RDF></metadata><g
     inkscape:label="Calque 1"
     inkscape:groupmode="layer"
     id="layer1"
     transform="translate(-68.346074,-67.061593)"><g
       id="g324"
       transform="matrix(0.26458333,0,0,0.26458333,82.454224,-33.287392)"><g
         id="g2726"
         transform="matrix(0.65331111,0,0,0.65331111,-31.775098,379.27176)"><path
           class="fa-primary"
           d="M 144,32 C 144,14.33 158.3,0 176,0 h 96 c 17.7,0 32,14.33 32,32 0,17.67 -14.3,32 -32,32 H 256 V 98.45 C 245.6,96.84 234.9,96 224,96 c -10.9,0 -21.6,0.84 -32,2.45 V 64 H 176 C 158.3,64 144,49.67 144,32 Z m 233.4,89.4 c 12.5,-12.5 32.7,-12.5 45.2,0 12.5,12.5 12.5,32.7 0,45.2 l -24.1,24.2 C 386.8,172.7 372.3,156.6 355.7,143 Z M 248,320 c 0,13.3 -10.7,24 -24,24 -13.3,0 -24,-10.7 -24,-24 V 192 c 0,-13.3 10.7,-24 24,-24 13.3,0 24,10.7 24,24 z"
           id="path6"
           style="fill:#535353;fill-opacity:1" /><path
           class="fa-secondary"
           d="M 16,304 C 16,189.1 109.1,96 224,96 338.9,96 432,189.1 432,304 432,418.9 338.9,512 224,512 109.1,512 16,418.9 16,304 Z M 248,192 c 0,-13.3 -10.7,-24 -24,-24 -13.3,0 -24,10.7 -24,24 v 128 c 0,13.3 10.7,24 24,24 13.3,0 24,-10.7 24,-24 z"
           id="path8"
           style="opacity:1;fill:#afafaf;fill-opacity:1;stroke-width:1.00084;stroke-dasharray:none" /></g></g></g></svg>
