<?xml version="1.0" encoding="UTF-8" standalone="no"?>
<svg
   viewBox="0 0 448 512"
   version="1.1"
   id="svg10"
   sodipodi:docname="stopwatch.svg"
   inkscape:export-filename="stopwatch.png"
   inkscape:export-xdpi="96"
   inkscape:export-ydpi="96"
   inkscape:version="1.3-dev (7be8183, 2022-04-11)"
   xmlns:inkscape="http://www.inkscape.org/namespaces/inkscape"
   xmlns:sodipodi="http://sodipodi.sourceforge.net/DTD/sodipodi-0.dtd"
   xmlns="http://www.w3.org/2000/svg"
   xmlns:svg="http://www.w3.org/2000/svg">
  <sodipodi:namedview
     id="namedview12"
     pagecolor="#ffffff"
     bordercolor="#000000"
     borderopacity="0.25"
     inkscape:pageshadow="2"
     inkscape:pageopacity="0.0"
     inkscape:pagecheckerboard="0"
     inkscape:deskcolor="#d1d1d1"
     showgrid="false"
     inkscape:zoom="0.44070137"
     inkscape:cx="-201.95081"
     inkscape:cy="-88.4953"
     inkscape:window-width="1920"
     inkscape:window-height="1022"
     inkscape:window-x="0"
     inkscape:window-y="32"
     inkscape:window-maximized="1"
     inkscape:current-layer="svg10" />
  <!--! Font Awesome Pro 6.1.1 by @fontawesome - https://fontawesome.com License - https://fontawesome.com/license (Commercial License) Copyright 2022 Fonticons, Inc. -->
  <rect
     style="fill:#a6c4ff;fill-opacity:1;stroke-width:1.00157;stroke-linecap:round"
     id="rect293"
     width="1225.6136"
     height="809.15082"
     x="-403.87338"
     y="-85.907646" />
  <defs
     id="defs4">
    <style
       id="style2">.fa-secondary{opacity:.4}</style>
  </defs>
  <g
     id="g2726"
     transform="translate(0.83860909)">
    <path
       class="fa-primary"
       d="M 144,32 C 144,14.33 158.3,0 176,0 h 96 c 17.7,0 32,14.33 32,32 0,17.67 -14.3,32 -32,32 H 256 V 98.45 C 245.6,96.84 234.9,96 224,96 c -10.9,0 -21.6,0.84 -32,2.45 V 64 H 176 C 158.3,64 144,49.67 144,32 Z m 233.4,89.4 c 12.5,-12.5 32.7,-12.5 45.2,0 12.5,12.5 12.5,32.7 0,45.2 l -24.1,24.2 C 386.8,172.7 372.3,156.6 355.7,143 Z M 248,320 c 0,13.3 -10.7,24 -24,24 -13.3,0 -24,-10.7 -24,-24 V 192 c 0,-13.3 10.7,-24 24,-24 13.3,0 24,10.7 24,24 z"
       id="path6" />
    <path
       class="fa-secondary"
       d="M 16,304 C 16,189.1 109.1,96 224,96 338.9,96 432,189.1 432,304 432,418.9 338.9,512 224,512 109.1,512 16,418.9 16,304 Z M 248,192 c 0,-13.3 -10.7,-24 -24,-24 -13.3,0 -24,10.7 -24,24 v 128 c 0,13.3 10.7,24 24,24 13.3,0 24,-10.7 24,-24 z"
       id="path8" />
  </g>
  <text
     xml:space="preserve"
     style="font-size:85.3333px;font-family:'Latin Modern Sans';-inkscape-font-specification:'Latin Modern Sans';text-align:end;text-anchor:end;fill:#a6c4ff;fill-opacity:1;stroke-width:1.00157;stroke-linecap:round"
     x="776.09064"
     y="624.66016"
     id="text2782"><tspan
       sodipodi:role="line"
       id="tspan2780"
       x="807.40778"
       y="624.66016"
       style="font-style:normal;font-variant:normal;font-weight:bold;font-stretch:normal;font-size:85.3333px;font-family:'Latin Modern Sans';-inkscape-font-specification:'Latin Modern Sans Bold';fill:#000000;fill-opacity:1">Bienvenue sur ChronoPhys ! </tspan></text>
</svg>
